<svg width="20" height="24" viewBox="0 0 20 24" fill="none" xmlns="http://www.w3.org/2000/svg">
<path d="M18.9204 9.71478C18.9204 16.7148 9.94433 22.7148 9.94433 22.7148C9.94433 22.7148 0.968264 16.7148 0.968264 9.71478C0.968264 7.32783 1.91395 5.03865 3.59729 3.35082C5.28063 1.66299 7.56373 0.714783 9.94433 0.714783C12.3249 0.714783 14.608 1.66299 16.2914 3.35082C17.9747 5.03865 18.9204 7.32783 18.9204 9.71478Z" stroke="#999999" stroke-linecap="round" stroke-linejoin="round"/>
<path d="M9.94433 12.7148C11.5968 12.7148 12.9363 11.3716 12.9363 9.71478C12.9363 8.05793 11.5968 6.71478 9.94433 6.71478C8.29188 6.71478 6.95231 8.05793 6.95231 9.71478C6.95231 11.3716 8.29188 12.7148 9.94433 12.7148Z" stroke="#999999" stroke-linecap="round" stroke-linejoin="round"/>
</svg>
